<?xml version="1.0" standalone="no"?>
<!DOCTYPE svg PUBLIC "-//W3C//DTD SVG 20010904//EN"
 "http://www.w3.org/TR/2001/REC-SVG-20010904/DTD/svg10.dtd">
<svg version="1.0" xmlns="http://www.w3.org/2000/svg"
 width="169.000000pt" height="169.000000pt" viewBox="0 0 169.000000 169.000000"
 preserveAspectRatio="xMidYMid meet">
<metadata>
Created by potrace 1.11, written by Peter Selinger 2001-2013
</metadata>
<g transform="translate(0.000000,169.000000) scale(0.100000,-0.100000)"
fill="#000000" stroke="none">
<path d="M777 1544 c-80 -11 -109 -18 -177 -46 -215 -89 -377 -273 -436 -498
-19 -69 -25 -254 -12 -322 57 -285 278 -511 567 -579 109 -25 309 -16 391 18
8 3 22 7 30 9 42 9 181 96 241 152 119 110 195 247 227 407 8 41 8 222 0 265
-59 313 -334 570 -637 596 -31 3 -67 6 -81 8 -14 1 -64 -3 -113 -10z"/>
</g>
</svg>
